<svg width="24" height="24" viewBox="0 0 24 24" fill="none" xmlns="http://www.w3.org/2000/svg">
<path d="M17.8435 2.06087C16.3565 0.730435 14.2696 0 12 0C9.73043 0 7.64347 0.730435 6.15651 2.06087C4.33043 3.67826 3.3913 6.10435 3.3913 9.13043C3.3913 15.6783 10.9304 23.3739 11.2696 23.687C11.4783 23.8957 11.7391 24 12 24C12.2609 24 12.5478 23.8957 12.7304 23.687C13.0696 23.3739 20.6087 15.6783 20.6087 9.13043C20.6087 6.10435 19.6696 3.67826 17.8435 2.06087V2.06087ZM12 21.4174C11.2956 20.6348 10.1739 19.3304 9.07825 17.7652C6.73043 14.4261 5.47825 11.4522 5.47825 9.13043C5.47825 2.6087 10.4609 2.08696 12 2.08696C18.0522 2.08696 18.5217 7.48696 18.5217 9.13043C18.5217 13.7217 13.8522 19.3826 12 21.4174ZM12 4.51304C9.70434 4.51304 7.85217 6.41739 7.85217 8.73913C7.85217 11.0609 9.70434 12.9391 12 12.9391C14.2956 12.9391 16.1478 11.0348 16.1478 8.71304C16.1478 6.3913 14.2956 4.51304 12 4.51304V4.51304ZM12 11.113C10.7217 11.113 9.67825 10.0435 9.67825 8.71304C9.67825 7.38261 10.7217 6.31304 12 6.31304C13.2783 6.31304 14.3217 7.38261 14.3217 8.71304C14.3217 10.0435 13.2783 11.113 12 11.113Z" fill="#F7931E"/>
</svg>
