<svg width="30" height="30" viewBox="0 0 30 30" fill="none" xmlns="http://www.w3.org/2000/svg">
<path d="M29.32 7.22988C29.0062 8.23263 28.5472 9.18398 27.9575 10.0536L27.9813 10.0161C27.4213 10.9495 26.7525 12.0278 25.975 13.2511C25.3084 14.217 24.9555 14.717 24.9163 14.7511C24.7381 14.9742 24.6229 15.241 24.5825 15.5236L24.5813 15.5324C24.6131 15.7871 24.7314 16.0231 24.9163 16.2011L25.4163 16.7586C28.0913 19.5078 29.5959 21.4028 29.93 22.4436C29.9934 22.6146 30.0138 22.7985 29.9894 22.9792C29.965 23.1599 29.8965 23.3319 29.79 23.4799L29.7925 23.4761C29.6667 23.6059 29.5133 23.7058 29.3437 23.7683C29.174 23.8309 28.9925 23.8545 28.8125 23.8374H28.8175H25.5225C25.1013 23.8374 24.7138 23.6899 24.41 23.4449L24.4138 23.4474C23.9801 23.0918 23.582 22.6949 23.225 22.2624L23.2138 22.2474C22.6379 21.5965 22.1271 21.0486 21.6813 20.6036C20.1963 19.192 19.1005 18.4861 18.3938 18.4861C18.1657 18.4657 17.9376 18.5254 17.7488 18.6549L17.7525 18.6524C17.6714 18.7541 17.6118 18.8713 17.5774 18.9968C17.5431 19.1223 17.5346 19.2535 17.5525 19.3824V19.3774C17.504 19.9606 17.4881 20.5461 17.505 21.1311V21.1099V22.5586C17.5405 22.7317 17.5284 22.9111 17.4698 23.0778C17.4112 23.2444 17.3085 23.3921 17.1725 23.5049L17.1713 23.5061C16.5383 23.7921 15.8414 23.9072 15.15 23.8399L15.1663 23.8411C13.274 23.8087 11.4265 23.2607 9.82253 22.2561L9.86628 22.2811C8.01677 21.1661 6.43149 19.6627 5.22003 17.8749L5.18628 17.8224C4.01033 16.2542 2.97665 14.5843 2.09753 12.8324L2.01003 12.6399C1.42423 11.5054 0.909493 10.3357 0.468784 9.13738L0.393784 8.90613C0.189453 8.28405 0.059384 7.64 0.00628418 6.98738L0.00378418 6.95613C0.00378418 6.32447 0.375451 6.00863 1.11878 6.00863H4.40628C4.73864 5.9826 5.06857 6.08305 5.33003 6.28988L5.32753 6.28738C5.57753 6.56113 5.76253 6.89738 5.85378 7.27238L5.85753 7.28738C6.40065 8.84278 7.0639 10.3536 7.84128 11.8061L7.75753 11.6349C8.3194 12.7762 8.99936 13.8554 9.78628 14.8549L9.75753 14.8161C10.4242 15.6345 10.9442 16.0436 11.3175 16.0436L11.3575 16.0449C11.4454 16.045 11.5318 16.022 11.608 15.9781C11.6841 15.9342 11.7473 15.871 11.7913 15.7949L11.7925 15.7924C11.9122 15.4791 11.9596 15.1428 11.9313 14.8086V14.8161V9.96738C11.9079 9.41763 11.7718 8.87855 11.5313 8.38363L11.5413 8.40738C11.3955 8.09284 11.2061 7.80039 10.9788 7.53863L10.9825 7.54363C10.7729 7.33437 10.6366 7.06296 10.5938 6.76988L10.5925 6.76238C10.5925 6.54988 10.69 6.35863 10.8425 6.23363L10.8438 6.23238C11.0007 6.08866 11.206 6.00923 11.4188 6.00988H16.6113C16.7416 5.99467 16.8737 6.01206 16.9957 6.0605C17.1176 6.10893 17.2256 6.18689 17.31 6.28738L17.3113 6.28863C17.4692 6.58035 17.5382 6.91188 17.51 7.24238V7.23613V13.7024C17.4901 13.9574 17.5495 14.2124 17.68 14.4324L17.6775 14.4274C17.7233 14.4958 17.7852 14.5519 17.8578 14.5907C17.9304 14.6295 18.0115 14.6498 18.0938 14.6499H18.095C18.3058 14.6362 18.5091 14.5663 18.6838 14.4474L18.68 14.4499C19.02 14.2161 19.3125 13.9499 19.5663 13.6486L19.5713 13.6424C20.3435 12.7686 21.0359 11.8273 21.64 10.8299L21.6888 10.7424C22.1188 10.0299 22.5838 9.15238 23.005 8.25113L23.0825 8.06738L23.64 6.95238C23.7382 6.66409 23.9275 6.41558 24.1794 6.24442C24.4313 6.07325 24.7321 5.98874 25.0363 6.00363H25.0325H28.3213C29.2096 6.00363 29.543 6.41238 29.3213 7.22988H29.32Z" fill="#F7931E"/>
</svg>
